<?xml version="1.0" encoding="utf-8"?>
<!-- Generator: Adobe Illustrator 26.0.0, SVG Export Plug-In . SVG Version: 6.00 Build 0)  -->
<svg version="1.1" id="Layer_1" xmlns="http://www.w3.org/2000/svg" xmlns:xlink="http://www.w3.org/1999/xlink" x="0px" y="0px"
	 viewBox="0 0 906 594" style="enable-background:new 0 0 906 594;" xml:space="preserve">
<style type="text/css">
	.st0{fill:#FFFFFF;stroke:#090100;stroke-width:0.75;stroke-miterlimit:10;}
	.st1{fill:#FFFFFF;stroke:#000000;stroke-width:0.75;stroke-miterlimit:10;}
</style>
<g transform="translate(0.000000,594.000000) scale(0.100000,-0.100000)">
	<path class="st0" d="M2711,5590c-71-146-694-1417-1385-2824C635,1358,71,206,73,205c2-2,1772,854,3452,1669
		c440,214,1610,781,2600,1261c2800,1357,2825,1369,2822,1372c-2,1-291-96-643-216c-846-290-3451-1183-3678-1260
		c-98-34-182-61-186-61c-10,0,56-119-810,1455c-408,743-753,1368-766,1390l-23,40L2711,5590z M3232,3377c209-400,379-729,377-731
		c-2-1-236-109-519-239s-695-319-915-420c-220-102-401-183-403-182c-1,1,168,371,376,821c208,451,448,969,532,1152
		c85,183,158,331,163,329C2847,4106,3022,3777,3232,3377z"/>
	<path class="st1" d="M4733,1187l-393-202v-92v-93h555c305,0,555,3,555,7c0,17-305,583-315,583C5130,1390,4948,1299,4733,1187z"/>
</g>
</svg>
