<?xml version="1.0" standalone="no"?>
<!DOCTYPE svg PUBLIC "-//W3C//DTD SVG 20010904//EN"
 "http://www.w3.org/TR/2001/REC-SVG-20010904/DTD/svg10.dtd">
<svg version="1.0" xmlns="http://www.w3.org/2000/svg"
 width="906.000000pt" height="594.000000pt" viewBox="0 0 906.000000 594.000000"
 preserveAspectRatio="xMidYMid meet">

<g transform="translate(0.000000,594.000000) scale(0.100000,-0.100000)"
fill="#000000" stroke="none">
<path d="M2711 5590 c-71 -146 -694 -1417 -1385 -2824 -691 -1408 -1255 -2560
-1253 -2561 2 -2 1772 854 3452 1669 440 214 1610 781 2600 1261 2800 1357
2825 1369 2822 1372 -2 1 -291 -96 -643 -216 -846 -290 -3451 -1183 -3678
-1260 -98 -34 -182 -61 -186 -61 -10 0 56 -119 -810 1455 -408 743 -753 1368
-766 1390 l-23 40 -130 -265z m521 -2213 c209 -400 379 -729 377 -731 -2 -1
-236 -109 -519 -239 -283 -130 -695 -319 -915 -420 -220 -102 -401 -183 -403
-182 -1 1 168 371 376 821 208 451 448 969 532 1152 85 183 158 331 163 329 4
-1 179 -330 389 -730z"/>
<path d="M4733 1187 l-393 -202 0 -92 0 -93 555 0 c305 0 555 3 555 7 0 17
-305 583 -315 583 -5 0 -187 -91 -402 -203z"/>
</g>
</svg>
